<mxfile host="app.diagrams.net" modified="2024-03-04T00:09:18.059Z" agent="Mozilla/5.0 (Macintosh; Intel Mac OS X 10_15_7) AppleWebKit/537.36 (KHTML, like Gecko) Chrome/122.0.0.0 Safari/537.36" etag="rAnwrjptvVp-IeeXNNVC" version="21.6.6" type="github">
  <diagram name="Page-1" id="guOM4XICzhOm8kalY4v7">
    <mxGraphModel dx="954" dy="499" grid="1" gridSize="10" guides="1" tooltips="1" connect="1" arrows="1" fold="1" page="1" pageScale="1" pageWidth="850" pageHeight="1100" math="0" shadow="0">
      <root>
        <mxCell id="0" />
        <mxCell id="1" parent="0" />
        <mxCell id="vp5uVM1dA6sx8OhrNTZT-1" value="" style="group" vertex="1" connectable="0" parent="1">
          <mxGeometry x="155" y="130" width="55" height="33.25" as="geometry" />
        </mxCell>
        <mxCell id="vp5uVM1dA6sx8OhrNTZT-2" value="" style="rounded=1;whiteSpace=wrap;html=1;" vertex="1" parent="vp5uVM1dA6sx8OhrNTZT-1">
          <mxGeometry width="55" height="33.25" as="geometry" />
        </mxCell>
        <mxCell id="vp5uVM1dA6sx8OhrNTZT-3" value="" style="sketch=0;aspect=fixed;pointerEvents=1;shadow=0;dashed=0;html=1;strokeColor=none;labelPosition=center;verticalLabelPosition=bottom;verticalAlign=top;align=center;fillColor=#000000;shape=mxgraph.azure.load_balancer_generic;direction=north;strokeWidth=1;" vertex="1" parent="vp5uVM1dA6sx8OhrNTZT-1">
          <mxGeometry x="11.620000000000005" y="4.8700000000000045" width="31.76" height="23.5" as="geometry" />
        </mxCell>
        <mxCell id="vp5uVM1dA6sx8OhrNTZT-4" value="Load Balancer" style="text;html=1;strokeColor=none;fillColor=none;align=center;verticalAlign=middle;whiteSpace=wrap;rounded=0;" vertex="1" parent="1">
          <mxGeometry x="150" y="172.87" width="60" height="30" as="geometry" />
        </mxCell>
        <mxCell id="vp5uVM1dA6sx8OhrNTZT-5" value="" style="sketch=0;outlineConnect=0;fontColor=#232F3E;gradientColor=none;fillColor=#232F3D;strokeColor=none;dashed=0;verticalLabelPosition=bottom;verticalAlign=top;align=center;html=1;fontSize=12;fontStyle=0;aspect=fixed;pointerEvents=1;shape=mxgraph.aws4.mobile_client;" vertex="1" parent="1">
          <mxGeometry x="58" y="132.37" width="26.81" height="51" as="geometry" />
        </mxCell>
        <mxCell id="vp5uVM1dA6sx8OhrNTZT-6" value="" style="sketch=0;outlineConnect=0;fontColor=#232F3E;gradientColor=none;fillColor=#232F3D;strokeColor=none;dashed=0;verticalLabelPosition=bottom;verticalAlign=top;align=center;html=1;fontSize=12;fontStyle=0;aspect=fixed;pointerEvents=1;shape=mxgraph.aws4.client;" vertex="1" parent="1">
          <mxGeometry y="133.37" width="51.32" height="50" as="geometry" />
        </mxCell>
        <mxCell id="vp5uVM1dA6sx8OhrNTZT-7" value="" style="group" vertex="1" connectable="0" parent="1">
          <mxGeometry x="370" y="130" width="55" height="33.25" as="geometry" />
        </mxCell>
        <mxCell id="vp5uVM1dA6sx8OhrNTZT-8" value="" style="rounded=1;whiteSpace=wrap;html=1;" vertex="1" parent="vp5uVM1dA6sx8OhrNTZT-7">
          <mxGeometry width="55" height="33.25" as="geometry" />
        </mxCell>
        <mxCell id="vp5uVM1dA6sx8OhrNTZT-9" value="" style="sketch=0;aspect=fixed;pointerEvents=1;shadow=0;dashed=0;html=1;strokeColor=none;labelPosition=center;verticalLabelPosition=bottom;verticalAlign=top;align=center;fillColor=#000000;shape=mxgraph.azure.load_balancer_generic;direction=north;strokeWidth=1;" vertex="1" parent="vp5uVM1dA6sx8OhrNTZT-7">
          <mxGeometry x="11.620000000000005" y="4.8700000000000045" width="31.76" height="23.5" as="geometry" />
        </mxCell>
        <mxCell id="vp5uVM1dA6sx8OhrNTZT-10" value="Load Balancer" style="text;html=1;strokeColor=none;fillColor=none;align=center;verticalAlign=middle;whiteSpace=wrap;rounded=0;" vertex="1" parent="1">
          <mxGeometry x="365" y="172.87" width="60" height="30" as="geometry" />
        </mxCell>
        <mxCell id="vp5uVM1dA6sx8OhrNTZT-11" value="" style="group" vertex="1" connectable="0" parent="1">
          <mxGeometry x="585" y="130" width="55" height="33.25" as="geometry" />
        </mxCell>
        <mxCell id="vp5uVM1dA6sx8OhrNTZT-12" value="" style="rounded=1;whiteSpace=wrap;html=1;" vertex="1" parent="vp5uVM1dA6sx8OhrNTZT-11">
          <mxGeometry width="55" height="33.25" as="geometry" />
        </mxCell>
        <mxCell id="vp5uVM1dA6sx8OhrNTZT-13" value="" style="sketch=0;aspect=fixed;pointerEvents=1;shadow=0;dashed=0;html=1;strokeColor=none;labelPosition=center;verticalLabelPosition=bottom;verticalAlign=top;align=center;fillColor=#000000;shape=mxgraph.azure.load_balancer_generic;direction=north;strokeWidth=1;" vertex="1" parent="vp5uVM1dA6sx8OhrNTZT-11">
          <mxGeometry x="11.620000000000005" y="4.8700000000000045" width="31.76" height="23.5" as="geometry" />
        </mxCell>
        <mxCell id="vp5uVM1dA6sx8OhrNTZT-14" value="Load Balancer" style="text;html=1;strokeColor=none;fillColor=none;align=center;verticalAlign=middle;whiteSpace=wrap;rounded=0;" vertex="1" parent="1">
          <mxGeometry x="580" y="172.87" width="60" height="30" as="geometry" />
        </mxCell>
        <mxCell id="vp5uVM1dA6sx8OhrNTZT-15" value="Web Server" style="sketch=0;outlineConnect=0;fontColor=#232F3E;gradientColor=none;strokeColor=#232F3E;fillColor=#ffffff;dashed=0;verticalLabelPosition=bottom;verticalAlign=top;align=center;html=1;fontSize=12;fontStyle=0;aspect=fixed;shape=mxgraph.aws4.resourceIcon;resIcon=mxgraph.aws4.traditional_server;" vertex="1" parent="1">
          <mxGeometry x="260" y="30" width="60" height="60" as="geometry" />
        </mxCell>
        <mxCell id="vp5uVM1dA6sx8OhrNTZT-16" value="Web Server" style="sketch=0;outlineConnect=0;fontColor=#232F3E;gradientColor=none;strokeColor=#232F3E;fillColor=#ffffff;dashed=0;verticalLabelPosition=bottom;verticalAlign=top;align=center;html=1;fontSize=12;fontStyle=0;aspect=fixed;shape=mxgraph.aws4.resourceIcon;resIcon=mxgraph.aws4.traditional_server;" vertex="1" parent="1">
          <mxGeometry x="260" y="137.87" width="60" height="60" as="geometry" />
        </mxCell>
        <mxCell id="vp5uVM1dA6sx8OhrNTZT-17" value="Web Server" style="sketch=0;outlineConnect=0;fontColor=#232F3E;gradientColor=none;strokeColor=#232F3E;fillColor=#ffffff;dashed=0;verticalLabelPosition=bottom;verticalAlign=top;align=center;html=1;fontSize=12;fontStyle=0;aspect=fixed;shape=mxgraph.aws4.resourceIcon;resIcon=mxgraph.aws4.traditional_server;" vertex="1" parent="1">
          <mxGeometry x="260" y="250" width="60" height="60" as="geometry" />
        </mxCell>
        <mxCell id="vp5uVM1dA6sx8OhrNTZT-18" value="Application Server" style="sketch=0;outlineConnect=0;fontColor=#232F3E;gradientColor=none;strokeColor=#232F3E;fillColor=#ffffff;dashed=0;verticalLabelPosition=bottom;verticalAlign=top;align=center;html=1;fontSize=12;fontStyle=0;aspect=fixed;shape=mxgraph.aws4.resourceIcon;resIcon=mxgraph.aws4.traditional_server;" vertex="1" parent="1">
          <mxGeometry x="470" y="20" width="60" height="60" as="geometry" />
        </mxCell>
        <mxCell id="vp5uVM1dA6sx8OhrNTZT-19" value="Application Server&amp;nbsp;" style="sketch=0;outlineConnect=0;fontColor=#232F3E;gradientColor=none;strokeColor=#232F3E;fillColor=#ffffff;dashed=0;verticalLabelPosition=bottom;verticalAlign=top;align=center;html=1;fontSize=12;fontStyle=0;aspect=fixed;shape=mxgraph.aws4.resourceIcon;resIcon=mxgraph.aws4.traditional_server;" vertex="1" parent="1">
          <mxGeometry x="470" y="127.87" width="60" height="60" as="geometry" />
        </mxCell>
        <mxCell id="vp5uVM1dA6sx8OhrNTZT-20" value="Application Server" style="sketch=0;outlineConnect=0;fontColor=#232F3E;gradientColor=none;strokeColor=#232F3E;fillColor=#ffffff;dashed=0;verticalLabelPosition=bottom;verticalAlign=top;align=center;html=1;fontSize=12;fontStyle=0;aspect=fixed;shape=mxgraph.aws4.resourceIcon;resIcon=mxgraph.aws4.traditional_server;" vertex="1" parent="1">
          <mxGeometry x="470" y="240" width="60" height="60" as="geometry" />
        </mxCell>
        <mxCell id="vp5uVM1dA6sx8OhrNTZT-21" value="" style="shape=image;html=1;verticalAlign=top;verticalLabelPosition=bottom;labelBackgroundColor=#ffffff;imageAspect=0;aspect=fixed;image=https://cdn2.iconfinder.com/data/icons/thin-line-icons-for-seo-and-development-1/64/SEO_international-128.png" vertex="1" parent="1">
          <mxGeometry x="289" y="68" width="30" height="30" as="geometry" />
        </mxCell>
        <mxCell id="vp5uVM1dA6sx8OhrNTZT-22" value="" style="shape=image;html=1;verticalAlign=top;verticalLabelPosition=bottom;labelBackgroundColor=#ffffff;imageAspect=0;aspect=fixed;image=https://cdn2.iconfinder.com/data/icons/thin-line-icons-for-seo-and-development-1/64/SEO_international-128.png" vertex="1" parent="1">
          <mxGeometry x="289" y="175" width="30" height="30" as="geometry" />
        </mxCell>
        <mxCell id="vp5uVM1dA6sx8OhrNTZT-23" value="" style="shape=image;html=1;verticalAlign=top;verticalLabelPosition=bottom;labelBackgroundColor=#ffffff;imageAspect=0;aspect=fixed;image=https://cdn2.iconfinder.com/data/icons/thin-line-icons-for-seo-and-development-1/64/SEO_international-128.png" vertex="1" parent="1">
          <mxGeometry x="288" y="288" width="30" height="30" as="geometry" />
        </mxCell>
        <mxCell id="vp5uVM1dA6sx8OhrNTZT-34" value="" style="group" vertex="1" connectable="0" parent="1">
          <mxGeometry x="683" y="31.5" width="97" height="88.5" as="geometry" />
        </mxCell>
        <mxCell id="vp5uVM1dA6sx8OhrNTZT-32" value="" style="shadow=0;html=1;strokeColor=#505050;fillColor=default;labelPosition=center;verticalLabelPosition=bottom;verticalAlign=top;outlineConnect=0;align=center;shape=mxgraph.office.databases.database_server;fillStyle=auto;strokeWidth=2;" vertex="1" parent="vp5uVM1dA6sx8OhrNTZT-34">
          <mxGeometry x="27" width="43" height="57" as="geometry" />
        </mxCell>
        <mxCell id="vp5uVM1dA6sx8OhrNTZT-33" value="Database Server" style="text;html=1;strokeColor=none;fillColor=none;align=center;verticalAlign=middle;whiteSpace=wrap;rounded=0;" vertex="1" parent="vp5uVM1dA6sx8OhrNTZT-34">
          <mxGeometry y="58.5" width="97" height="30" as="geometry" />
        </mxCell>
        <mxCell id="vp5uVM1dA6sx8OhrNTZT-35" value="" style="group" vertex="1" connectable="0" parent="1">
          <mxGeometry x="680" y="140" width="97" height="88.5" as="geometry" />
        </mxCell>
        <mxCell id="vp5uVM1dA6sx8OhrNTZT-36" value="" style="shadow=0;html=1;strokeColor=#505050;fillColor=default;labelPosition=center;verticalLabelPosition=bottom;verticalAlign=top;outlineConnect=0;align=center;shape=mxgraph.office.databases.database_server;fillStyle=auto;strokeWidth=2;" vertex="1" parent="vp5uVM1dA6sx8OhrNTZT-35">
          <mxGeometry x="27" width="43" height="57" as="geometry" />
        </mxCell>
        <mxCell id="vp5uVM1dA6sx8OhrNTZT-37" value="Database Server" style="text;html=1;strokeColor=none;fillColor=none;align=center;verticalAlign=middle;whiteSpace=wrap;rounded=0;" vertex="1" parent="vp5uVM1dA6sx8OhrNTZT-35">
          <mxGeometry y="58.5" width="97" height="30" as="geometry" />
        </mxCell>
        <mxCell id="vp5uVM1dA6sx8OhrNTZT-38" value="" style="group" vertex="1" connectable="0" parent="1">
          <mxGeometry x="680" y="240" width="97" height="88.5" as="geometry" />
        </mxCell>
        <mxCell id="vp5uVM1dA6sx8OhrNTZT-39" value="" style="shadow=0;html=1;strokeColor=#505050;fillColor=default;labelPosition=center;verticalLabelPosition=bottom;verticalAlign=top;outlineConnect=0;align=center;shape=mxgraph.office.databases.database_server;fillStyle=auto;strokeWidth=2;" vertex="1" parent="vp5uVM1dA6sx8OhrNTZT-38">
          <mxGeometry x="27" width="43" height="57" as="geometry" />
        </mxCell>
        <mxCell id="vp5uVM1dA6sx8OhrNTZT-40" value="Database Server" style="text;html=1;strokeColor=none;fillColor=none;align=center;verticalAlign=middle;whiteSpace=wrap;rounded=0;" vertex="1" parent="vp5uVM1dA6sx8OhrNTZT-38">
          <mxGeometry y="58.5" width="97" height="30" as="geometry" />
        </mxCell>
      </root>
    </mxGraphModel>
  </diagram>
</mxfile>
